<svg xmlns="http://www.w3.org/2000/svg" xmlns:xlink="http://www.w3.org/1999/xlink" width="500" zoomAndPan="magnify" viewBox="0 0 375 374.999991" height="500" preserveAspectRatio="xMidYMid meet" version="1.0"><defs><g/><linearGradient x1="250" gradientTransform="matrix(0.75, 0, 0, 0.75, 0.0000045, 0)" y1="0" x2="250" gradientUnits="userSpaceOnUse" y2="499.999979" id="0e427fe381"><stop stop-opacity="1" stop-color="rgb(48.239136%, 17.649841%, 62.348938%)" offset="0"/><stop stop-opacity="1" stop-color="rgb(48.4375%, 17.910767%, 62.174988%)" offset="0.00390625"/><stop stop-opacity="1" stop-color="rgb(48.63739%, 18.173218%, 62.002563%)" offset="0.0078125"/><stop stop-opacity="1" stop-color="rgb(48.835754%, 18.434143%, 61.828613%)" offset="0.0117187"/><stop stop-opacity="1" stop-color="rgb(49.035645%, 18.696594%, 61.656189%)" offset="0.015625"/><stop stop-opacity="1" stop-color="rgb(49.234009%, 18.959045%, 61.483765%)" offset="0.0195312"/><stop stop-opacity="1" stop-color="rgb(49.433899%, 19.221497%, 61.31134%)" offset="0.0234375"/><stop stop-opacity="1" stop-color="rgb(49.632263%, 19.482422%, 61.13739%)" offset="0.0273438"/><stop stop-opacity="1" stop-color="rgb(49.832153%, 19.744873%, 60.964966%)" offset="0.03125"/><stop stop-opacity="1" stop-color="rgb(50.030518%, 20.005798%, 60.791016%)" offset="0.0351562"/><stop stop-opacity="1" stop-color="rgb(50.230408%, 20.26825%, 60.618591%)" offset="0.0390625"/><stop stop-opacity="1" stop-color="rgb(50.428772%, 20.530701%, 60.444641%)" offset="0.0429687"/><stop stop-opacity="1" stop-color="rgb(50.628662%, 20.793152%, 60.272217%)" offset="0.046875"/><stop stop-opacity="1" stop-color="rgb(50.827026%, 21.054077%, 60.098267%)" offset="0.0507812"/><stop stop-opacity="1" stop-color="rgb(51.026917%, 21.316528%, 59.925842%)" offset="0.0546875"/><stop stop-opacity="1" stop-color="rgb(51.225281%, 21.577454%, 59.751892%)" offset="0.0585938"/><stop stop-opacity="1" stop-color="rgb(51.425171%, 21.839905%, 59.579468%)" offset="0.0625"/><stop stop-opacity="1" stop-color="rgb(51.623535%, 22.102356%, 59.405518%)" offset="0.0664062"/><stop stop-opacity="1" stop-color="rgb(51.823425%, 22.364807%, 59.233093%)" offset="0.0703125"/><stop stop-opacity="1" stop-color="rgb(52.02179%, 22.625732%, 59.060669%)" offset="0.0742187"/><stop stop-opacity="1" stop-color="rgb(52.22168%, 22.888184%, 58.888245%)" offset="0.078125"/><stop stop-opacity="1" stop-color="rgb(52.420044%, 23.149109%, 58.714294%)" offset="0.0820312"/><stop stop-opacity="1" stop-color="rgb(52.619934%, 23.41156%, 58.54187%)" offset="0.0859375"/><stop stop-opacity="1" stop-color="rgb(52.818298%, 23.674011%, 58.36792%)" offset="0.0898437"/><stop stop-opacity="1" stop-color="rgb(53.018188%, 23.936462%, 58.195496%)" offset="0.09375"/><stop stop-opacity="1" stop-color="rgb(53.216553%, 24.197388%, 58.021545%)" offset="0.0976562"/><stop stop-opacity="1" stop-color="rgb(53.416443%, 24.459839%, 57.849121%)" offset="0.101562"/><stop stop-opacity="1" stop-color="rgb(53.614807%, 24.720764%, 57.675171%)" offset="0.105469"/><stop stop-opacity="1" stop-color="rgb(53.814697%, 24.983215%, 57.502747%)" offset="0.109375"/><stop stop-opacity="1" stop-color="rgb(54.013062%, 25.245667%, 57.328796%)" offset="0.113281"/><stop stop-opacity="1" stop-color="rgb(54.212952%, 25.508118%, 57.156372%)" offset="0.117188"/><stop stop-opacity="1" stop-color="rgb(54.411316%, 25.769043%, 56.982422%)" offset="0.121094"/><stop stop-opacity="1" stop-color="rgb(54.611206%, 26.031494%, 56.809998%)" offset="0.125"/><stop stop-opacity="1" stop-color="rgb(54.80957%, 26.293945%, 56.636047%)" offset="0.128906"/><stop stop-opacity="1" stop-color="rgb(55.00946%, 26.556396%, 56.463623%)" offset="0.132812"/><stop stop-opacity="1" stop-color="rgb(55.207825%, 26.817322%, 56.291199%)" offset="0.136719"/><stop stop-opacity="1" stop-color="rgb(55.407715%, 27.079773%, 56.118774%)" offset="0.140625"/><stop stop-opacity="1" stop-color="rgb(55.606079%, 27.340698%, 55.944824%)" offset="0.144531"/><stop stop-opacity="1" stop-color="rgb(55.805969%, 27.603149%, 55.7724%)" offset="0.148437"/><stop stop-opacity="1" stop-color="rgb(56.004333%, 27.865601%, 55.59845%)" offset="0.152344"/><stop stop-opacity="1" stop-color="rgb(56.204224%, 28.128052%, 55.426025%)" offset="0.15625"/><stop stop-opacity="1" stop-color="rgb(56.402588%, 28.388977%, 55.252075%)" offset="0.160156"/><stop stop-opacity="1" stop-color="rgb(56.602478%, 28.651428%, 55.079651%)" offset="0.164062"/><stop stop-opacity="1" stop-color="rgb(56.800842%, 28.912354%, 54.905701%)" offset="0.167969"/><stop stop-opacity="1" stop-color="rgb(57.000732%, 29.174805%, 54.733276%)" offset="0.171875"/><stop stop-opacity="1" stop-color="rgb(57.199097%, 29.437256%, 54.559326%)" offset="0.175781"/><stop stop-opacity="1" stop-color="rgb(57.398987%, 29.699707%, 54.386902%)" offset="0.179687"/><stop stop-opacity="1" stop-color="rgb(57.597351%, 29.960632%, 54.212952%)" offset="0.183594"/><stop stop-opacity="1" stop-color="rgb(57.797241%, 30.223083%, 54.040527%)" offset="0.1875"/><stop stop-opacity="1" stop-color="rgb(57.997131%, 30.484009%, 53.868103%)" offset="0.191406"/><stop stop-opacity="1" stop-color="rgb(58.197021%, 30.74646%, 53.695679%)" offset="0.195312"/><stop stop-opacity="1" stop-color="rgb(58.395386%, 31.008911%, 53.521729%)" offset="0.199219"/><stop stop-opacity="1" stop-color="rgb(58.595276%, 31.271362%, 53.349304%)" offset="0.203125"/><stop stop-opacity="1" stop-color="rgb(58.79364%, 31.532288%, 53.175354%)" offset="0.207031"/><stop stop-opacity="1" stop-color="rgb(58.99353%, 31.794739%, 53.00293%)" offset="0.210938"/><stop stop-opacity="1" stop-color="rgb(59.191895%, 32.055664%, 52.828979%)" offset="0.214844"/><stop stop-opacity="1" stop-color="rgb(59.391785%, 32.318115%, 52.656555%)" offset="0.21875"/><stop stop-opacity="1" stop-color="rgb(59.590149%, 32.580566%, 52.482605%)" offset="0.222656"/><stop stop-opacity="1" stop-color="rgb(59.790039%, 32.843018%, 52.310181%)" offset="0.226562"/><stop stop-opacity="1" stop-color="rgb(59.988403%, 33.103943%, 52.13623%)" offset="0.230469"/><stop stop-opacity="1" stop-color="rgb(60.188293%, 33.366394%, 51.963806%)" offset="0.234375"/><stop stop-opacity="1" stop-color="rgb(60.386658%, 33.627319%, 51.789856%)" offset="0.238281"/><stop stop-opacity="1" stop-color="rgb(60.586548%, 33.889771%, 51.617432%)" offset="0.242188"/><stop stop-opacity="1" stop-color="rgb(60.784912%, 34.152222%, 51.443481%)" offset="0.246094"/><stop stop-opacity="1" stop-color="rgb(60.984802%, 34.414673%, 51.271057%)" offset="0.25"/><stop stop-opacity="1" stop-color="rgb(61.183167%, 34.675598%, 51.098633%)" offset="0.253906"/><stop stop-opacity="1" stop-color="rgb(61.383057%, 34.938049%, 50.926208%)" offset="0.257812"/><stop stop-opacity="1" stop-color="rgb(61.581421%, 35.198975%, 50.752258%)" offset="0.261719"/><stop stop-opacity="1" stop-color="rgb(61.781311%, 35.461426%, 50.579834%)" offset="0.265625"/><stop stop-opacity="1" stop-color="rgb(61.979675%, 35.723877%, 50.405884%)" offset="0.269531"/><stop stop-opacity="1" stop-color="rgb(62.179565%, 35.986328%, 50.233459%)" offset="0.273437"/><stop stop-opacity="1" stop-color="rgb(62.37793%, 36.247253%, 50.059509%)" offset="0.277344"/><stop stop-opacity="1" stop-color="rgb(62.57782%, 36.509705%, 49.887085%)" offset="0.28125"/><stop stop-opacity="1" stop-color="rgb(62.776184%, 36.77063%, 49.713135%)" offset="0.285156"/><stop stop-opacity="1" stop-color="rgb(62.976074%, 37.033081%, 49.54071%)" offset="0.289062"/><stop stop-opacity="1" stop-color="rgb(63.174438%, 37.295532%, 49.36676%)" offset="0.292969"/><stop stop-opacity="1" stop-color="rgb(63.374329%, 37.557983%, 49.194336%)" offset="0.296875"/><stop stop-opacity="1" stop-color="rgb(63.572693%, 37.818909%, 49.020386%)" offset="0.300781"/><stop stop-opacity="1" stop-color="rgb(63.772583%, 38.08136%, 48.847961%)" offset="0.304687"/><stop stop-opacity="1" stop-color="rgb(63.970947%, 38.342285%, 48.675537%)" offset="0.308594"/><stop stop-opacity="1" stop-color="rgb(64.170837%, 38.604736%, 48.503113%)" offset="0.3125"/><stop stop-opacity="1" stop-color="rgb(64.369202%, 38.867188%, 48.329163%)" offset="0.316406"/><stop stop-opacity="1" stop-color="rgb(64.569092%, 39.129639%, 48.156738%)" offset="0.320312"/><stop stop-opacity="1" stop-color="rgb(64.767456%, 39.390564%, 47.982788%)" offset="0.324219"/><stop stop-opacity="1" stop-color="rgb(64.967346%, 39.653015%, 47.810364%)" offset="0.328125"/><stop stop-opacity="1" stop-color="rgb(65.16571%, 39.915466%, 47.636414%)" offset="0.332031"/><stop stop-opacity="1" stop-color="rgb(65.365601%, 40.177917%, 47.463989%)" offset="0.335937"/><stop stop-opacity="1" stop-color="rgb(65.563965%, 40.438843%, 47.290039%)" offset="0.339844"/><stop stop-opacity="1" stop-color="rgb(65.763855%, 40.701294%, 47.117615%)" offset="0.34375"/><stop stop-opacity="1" stop-color="rgb(65.962219%, 40.962219%, 46.943665%)" offset="0.347656"/><stop stop-opacity="1" stop-color="rgb(66.162109%, 41.22467%, 46.77124%)" offset="0.351562"/><stop stop-opacity="1" stop-color="rgb(66.360474%, 41.487122%, 46.59729%)" offset="0.355469"/><stop stop-opacity="1" stop-color="rgb(66.560364%, 41.749573%, 46.424866%)" offset="0.359375"/><stop stop-opacity="1" stop-color="rgb(66.758728%, 42.010498%, 46.250916%)" offset="0.363281"/><stop stop-opacity="1" stop-color="rgb(66.958618%, 42.272949%, 46.078491%)" offset="0.367187"/><stop stop-opacity="1" stop-color="rgb(67.156982%, 42.533875%, 45.906067%)" offset="0.371094"/><stop stop-opacity="1" stop-color="rgb(67.356873%, 42.796326%, 45.733643%)" offset="0.375"/><stop stop-opacity="1" stop-color="rgb(67.555237%, 43.058777%, 45.559692%)" offset="0.378906"/><stop stop-opacity="1" stop-color="rgb(67.755127%, 43.321228%, 45.387268%)" offset="0.382812"/><stop stop-opacity="1" stop-color="rgb(67.953491%, 43.582153%, 45.213318%)" offset="0.386719"/><stop stop-opacity="1" stop-color="rgb(68.153381%, 43.844604%, 45.040894%)" offset="0.390625"/><stop stop-opacity="1" stop-color="rgb(68.351746%, 44.10553%, 44.866943%)" offset="0.394531"/><stop stop-opacity="1" stop-color="rgb(68.551636%, 44.367981%, 44.694519%)" offset="0.398438"/><stop stop-opacity="1" stop-color="rgb(68.75%, 44.630432%, 44.520569%)" offset="0.402344"/><stop stop-opacity="1" stop-color="rgb(68.94989%, 44.892883%, 44.348145%)" offset="0.40625"/><stop stop-opacity="1" stop-color="rgb(69.148254%, 45.153809%, 44.174194%)" offset="0.410156"/><stop stop-opacity="1" stop-color="rgb(69.348145%, 45.41626%, 44.00177%)" offset="0.414062"/><stop stop-opacity="1" stop-color="rgb(69.546509%, 45.677185%, 43.82782%)" offset="0.417969"/><stop stop-opacity="1" stop-color="rgb(69.746399%, 45.939636%, 43.655396%)" offset="0.421875"/><stop stop-opacity="1" stop-color="rgb(69.944763%, 46.202087%, 43.482971%)" offset="0.425781"/><stop stop-opacity="1" stop-color="rgb(70.144653%, 46.464539%, 43.310547%)" offset="0.429688"/><stop stop-opacity="1" stop-color="rgb(70.343018%, 46.725464%, 43.136597%)" offset="0.433594"/><stop stop-opacity="1" stop-color="rgb(70.542908%, 46.987915%, 42.964172%)" offset="0.4375"/><stop stop-opacity="1" stop-color="rgb(70.741272%, 47.24884%, 42.790222%)" offset="0.441406"/><stop stop-opacity="1" stop-color="rgb(70.941162%, 47.511292%, 42.617798%)" offset="0.445312"/><stop stop-opacity="1" stop-color="rgb(71.139526%, 47.773743%, 42.443848%)" offset="0.449219"/><stop stop-opacity="1" stop-color="rgb(71.339417%, 48.036194%, 42.271423%)" offset="0.453125"/><stop stop-opacity="1" stop-color="rgb(71.537781%, 48.297119%, 42.097473%)" offset="0.457031"/><stop stop-opacity="1" stop-color="rgb(71.737671%, 48.55957%, 41.925049%)" offset="0.460938"/><stop stop-opacity="1" stop-color="rgb(71.936035%, 48.820496%, 41.751099%)" offset="0.464844"/><stop stop-opacity="1" stop-color="rgb(72.135925%, 49.082947%, 41.578674%)" offset="0.46875"/><stop stop-opacity="1" stop-color="rgb(72.33429%, 49.345398%, 41.404724%)" offset="0.472656"/><stop stop-opacity="1" stop-color="rgb(72.53418%, 49.607849%, 41.2323%)" offset="0.476562"/><stop stop-opacity="1" stop-color="rgb(72.732544%, 49.868774%, 41.05835%)" offset="0.480469"/><stop stop-opacity="1" stop-color="rgb(72.932434%, 50.131226%, 40.885925%)" offset="0.484375"/><stop stop-opacity="1" stop-color="rgb(73.130798%, 50.392151%, 40.713501%)" offset="0.488281"/><stop stop-opacity="1" stop-color="rgb(73.330688%, 50.654602%, 40.541077%)" offset="0.492188"/><stop stop-opacity="1" stop-color="rgb(73.529053%, 50.917053%, 40.367126%)" offset="0.496094"/><stop stop-opacity="1" stop-color="rgb(73.728943%, 51.179504%, 40.194702%)" offset="0.5"/><stop stop-opacity="1" stop-color="rgb(73.927307%, 51.44043%, 40.020752%)" offset="0.503906"/><stop stop-opacity="1" stop-color="rgb(74.127197%, 51.702881%, 39.848328%)" offset="0.507812"/><stop stop-opacity="1" stop-color="rgb(74.325562%, 51.965332%, 39.674377%)" offset="0.511719"/><stop stop-opacity="1" stop-color="rgb(74.525452%, 52.227783%, 39.501953%)" offset="0.515625"/><stop stop-opacity="1" stop-color="rgb(74.723816%, 52.488708%, 39.328003%)" offset="0.519531"/><stop stop-opacity="1" stop-color="rgb(74.923706%, 52.75116%, 39.155579%)" offset="0.523437"/><stop stop-opacity="1" stop-color="rgb(75.12207%, 53.012085%, 38.981628%)" offset="0.527344"/><stop stop-opacity="1" stop-color="rgb(75.32196%, 53.274536%, 38.809204%)" offset="0.53125"/><stop stop-opacity="1" stop-color="rgb(75.520325%, 53.536987%, 38.635254%)" offset="0.535156"/><stop stop-opacity="1" stop-color="rgb(75.720215%, 53.799438%, 38.46283%)" offset="0.539062"/><stop stop-opacity="1" stop-color="rgb(75.918579%, 54.060364%, 38.288879%)" offset="0.542969"/><stop stop-opacity="1" stop-color="rgb(76.118469%, 54.322815%, 38.116455%)" offset="0.546875"/><stop stop-opacity="1" stop-color="rgb(76.316833%, 54.58374%, 37.944031%)" offset="0.550781"/><stop stop-opacity="1" stop-color="rgb(76.516724%, 54.846191%, 37.771606%)" offset="0.554687"/><stop stop-opacity="1" stop-color="rgb(76.715088%, 55.108643%, 37.597656%)" offset="0.558594"/><stop stop-opacity="1" stop-color="rgb(76.914978%, 55.371094%, 37.425232%)" offset="0.5625"/><stop stop-opacity="1" stop-color="rgb(77.113342%, 55.632019%, 37.251282%)" offset="0.566406"/><stop stop-opacity="1" stop-color="rgb(77.313232%, 55.89447%, 37.078857%)" offset="0.570312"/><stop stop-opacity="1" stop-color="rgb(77.511597%, 56.155396%, 36.904907%)" offset="0.574219"/><stop stop-opacity="1" stop-color="rgb(77.711487%, 56.417847%, 36.732483%)" offset="0.578125"/><stop stop-opacity="1" stop-color="rgb(77.909851%, 56.680298%, 36.558533%)" offset="0.582031"/><stop stop-opacity="1" stop-color="rgb(78.109741%, 56.942749%, 36.386108%)" offset="0.585937"/><stop stop-opacity="1" stop-color="rgb(78.308105%, 57.203674%, 36.212158%)" offset="0.589844"/><stop stop-opacity="1" stop-color="rgb(78.507996%, 57.466125%, 36.039734%)" offset="0.59375"/><stop stop-opacity="1" stop-color="rgb(78.70636%, 57.727051%, 35.865784%)" offset="0.597656"/><stop stop-opacity="1" stop-color="rgb(78.90625%, 57.989502%, 35.693359%)" offset="0.601562"/><stop stop-opacity="1" stop-color="rgb(79.104614%, 58.251953%, 35.520935%)" offset="0.605469"/><stop stop-opacity="1" stop-color="rgb(79.304504%, 58.514404%, 35.348511%)" offset="0.609375"/><stop stop-opacity="1" stop-color="rgb(79.502869%, 58.77533%, 35.174561%)" offset="0.613281"/><stop stop-opacity="1" stop-color="rgb(79.702759%, 59.037781%, 35.002136%)" offset="0.617187"/><stop stop-opacity="1" stop-color="rgb(79.901123%, 59.298706%, 34.828186%)" offset="0.621094"/><stop stop-opacity="1" stop-color="rgb(80.101013%, 59.561157%, 34.655762%)" offset="0.625"/><stop stop-opacity="1" stop-color="rgb(80.299377%, 59.823608%, 34.481812%)" offset="0.628906"/><stop stop-opacity="1" stop-color="rgb(80.499268%, 60.08606%, 34.309387%)" offset="0.632812"/><stop stop-opacity="1" stop-color="rgb(80.699158%, 60.346985%, 34.135437%)" offset="0.636719"/><stop stop-opacity="1" stop-color="rgb(80.899048%, 60.609436%, 33.963013%)" offset="0.640625"/><stop stop-opacity="1" stop-color="rgb(81.097412%, 60.870361%, 33.789062%)" offset="0.644531"/><stop stop-opacity="1" stop-color="rgb(81.297302%, 61.132812%, 33.616638%)" offset="0.648437"/><stop stop-opacity="1" stop-color="rgb(81.495667%, 61.395264%, 33.442688%)" offset="0.652344"/><stop stop-opacity="1" stop-color="rgb(81.695557%, 61.657715%, 33.270264%)" offset="0.65625"/><stop stop-opacity="1" stop-color="rgb(81.893921%, 61.91864%, 33.096313%)" offset="0.660156"/><stop stop-opacity="1" stop-color="rgb(82.093811%, 62.181091%, 32.923889%)" offset="0.664062"/><stop stop-opacity="1" stop-color="rgb(82.292175%, 62.442017%, 32.751465%)" offset="0.667969"/><stop stop-opacity="1" stop-color="rgb(82.492065%, 62.704468%, 32.579041%)" offset="0.671875"/><stop stop-opacity="1" stop-color="rgb(82.69043%, 62.966919%, 32.40509%)" offset="0.675781"/><stop stop-opacity="1" stop-color="rgb(82.89032%, 63.22937%, 32.232666%)" offset="0.679687"/><stop stop-opacity="1" stop-color="rgb(83.088684%, 63.490295%, 32.058716%)" offset="0.683594"/><stop stop-opacity="1" stop-color="rgb(83.288574%, 63.752747%, 31.886292%)" offset="0.6875"/><stop stop-opacity="1" stop-color="rgb(83.486938%, 64.015198%, 31.712341%)" offset="0.691406"/><stop stop-opacity="1" stop-color="rgb(83.686829%, 64.277649%, 31.539917%)" offset="0.695312"/><stop stop-opacity="1" stop-color="rgb(83.885193%, 64.538574%, 31.365967%)" offset="0.699219"/><stop stop-opacity="1" stop-color="rgb(84.085083%, 64.801025%, 31.193542%)" offset="0.703125"/><stop stop-opacity="1" stop-color="rgb(84.283447%, 65.061951%, 31.019592%)" offset="0.707031"/><stop stop-opacity="1" stop-color="rgb(84.483337%, 65.324402%, 30.847168%)" offset="0.710937"/><stop stop-opacity="1" stop-color="rgb(84.681702%, 65.586853%, 30.673218%)" offset="0.714844"/><stop stop-opacity="1" stop-color="rgb(84.881592%, 65.849304%, 30.500793%)" offset="0.71875"/><stop stop-opacity="1" stop-color="rgb(85.079956%, 66.110229%, 30.328369%)" offset="0.722656"/><stop stop-opacity="1" stop-color="rgb(85.279846%, 66.372681%, 30.155945%)" offset="0.726562"/><stop stop-opacity="1" stop-color="rgb(85.47821%, 66.633606%, 29.981995%)" offset="0.730469"/><stop stop-opacity="1" stop-color="rgb(85.678101%, 66.896057%, 29.80957%)" offset="0.734375"/><stop stop-opacity="1" stop-color="rgb(85.876465%, 67.158508%, 29.63562%)" offset="0.738281"/><stop stop-opacity="1" stop-color="rgb(86.076355%, 67.420959%, 29.463196%)" offset="0.742187"/><stop stop-opacity="1" stop-color="rgb(86.274719%, 67.681885%, 29.289246%)" offset="0.746094"/><stop stop-opacity="1" stop-color="rgb(86.474609%, 67.944336%, 29.116821%)" offset="0.75"/><stop stop-opacity="1" stop-color="rgb(86.672974%, 68.205261%, 28.942871%)" offset="0.753906"/><stop stop-opacity="1" stop-color="rgb(86.872864%, 68.467712%, 28.770447%)" offset="0.757812"/><stop stop-opacity="1" stop-color="rgb(87.071228%, 68.730164%, 28.596497%)" offset="0.761719"/><stop stop-opacity="1" stop-color="rgb(87.271118%, 68.992615%, 28.424072%)" offset="0.765625"/><stop stop-opacity="1" stop-color="rgb(87.469482%, 69.25354%, 28.250122%)" offset="0.769531"/><stop stop-opacity="1" stop-color="rgb(87.669373%, 69.515991%, 28.077698%)" offset="0.773438"/><stop stop-opacity="1" stop-color="rgb(87.867737%, 69.776917%, 27.903748%)" offset="0.777344"/><stop stop-opacity="1" stop-color="rgb(88.067627%, 70.039368%, 27.731323%)" offset="0.78125"/><stop stop-opacity="1" stop-color="rgb(88.265991%, 70.301819%, 27.558899%)" offset="0.785156"/><stop stop-opacity="1" stop-color="rgb(88.465881%, 70.56427%, 27.386475%)" offset="0.789062"/><stop stop-opacity="1" stop-color="rgb(88.664246%, 70.825195%, 27.212524%)" offset="0.792969"/><stop stop-opacity="1" stop-color="rgb(88.864136%, 71.087646%, 27.0401%)" offset="0.796875"/><stop stop-opacity="1" stop-color="rgb(89.0625%, 71.348572%, 26.86615%)" offset="0.800781"/><stop stop-opacity="1" stop-color="rgb(89.26239%, 71.611023%, 26.693726%)" offset="0.804688"/><stop stop-opacity="1" stop-color="rgb(89.460754%, 71.873474%, 26.519775%)" offset="0.808594"/><stop stop-opacity="1" stop-color="rgb(89.660645%, 72.135925%, 26.347351%)" offset="0.8125"/><stop stop-opacity="1" stop-color="rgb(89.859009%, 72.396851%, 26.173401%)" offset="0.816406"/><stop stop-opacity="1" stop-color="rgb(90.058899%, 72.659302%, 26.000977%)" offset="0.820312"/><stop stop-opacity="1" stop-color="rgb(90.257263%, 72.920227%, 25.827026%)" offset="0.824219"/><stop stop-opacity="1" stop-color="rgb(90.457153%, 73.182678%, 25.654602%)" offset="0.828125"/><stop stop-opacity="1" stop-color="rgb(90.655518%, 73.445129%, 25.480652%)" offset="0.832031"/><stop stop-opacity="1" stop-color="rgb(90.855408%, 73.707581%, 25.308228%)" offset="0.835938"/><stop stop-opacity="1" stop-color="rgb(91.053772%, 73.968506%, 25.135803%)" offset="0.839844"/><stop stop-opacity="1" stop-color="rgb(91.253662%, 74.230957%, 24.963379%)" offset="0.84375"/><stop stop-opacity="1" stop-color="rgb(91.452026%, 74.491882%, 24.789429%)" offset="0.847656"/><stop stop-opacity="1" stop-color="rgb(91.651917%, 74.754333%, 24.617004%)" offset="0.851562"/><stop stop-opacity="1" stop-color="rgb(91.850281%, 75.016785%, 24.443054%)" offset="0.855469"/><stop stop-opacity="1" stop-color="rgb(92.050171%, 75.279236%, 24.27063%)" offset="0.859375"/><stop stop-opacity="1" stop-color="rgb(92.248535%, 75.540161%, 24.09668%)" offset="0.863281"/><stop stop-opacity="1" stop-color="rgb(92.448425%, 75.802612%, 23.924255%)" offset="0.867188"/><stop stop-opacity="1" stop-color="rgb(92.64679%, 76.063538%, 23.750305%)" offset="0.871094"/><stop stop-opacity="1" stop-color="rgb(92.84668%, 76.325989%, 23.577881%)" offset="0.875"/><stop stop-opacity="1" stop-color="rgb(93.045044%, 76.58844%, 23.403931%)" offset="0.878906"/><stop stop-opacity="1" stop-color="rgb(93.244934%, 76.850891%, 23.231506%)" offset="0.882812"/><stop stop-opacity="1" stop-color="rgb(93.443298%, 77.111816%, 23.057556%)" offset="0.886719"/><stop stop-opacity="1" stop-color="rgb(93.643188%, 77.374268%, 22.885132%)" offset="0.890625"/><stop stop-opacity="1" stop-color="rgb(93.841553%, 77.636719%, 22.711182%)" offset="0.894531"/><stop stop-opacity="1" stop-color="rgb(94.041443%, 77.89917%, 22.538757%)" offset="0.898438"/><stop stop-opacity="1" stop-color="rgb(94.239807%, 78.160095%, 22.366333%)" offset="0.902344"/><stop stop-opacity="1" stop-color="rgb(94.439697%, 78.422546%, 22.193909%)" offset="0.90625"/><stop stop-opacity="1" stop-color="rgb(94.638062%, 78.683472%, 22.019958%)" offset="0.910156"/><stop stop-opacity="1" stop-color="rgb(94.837952%, 78.945923%, 21.847534%)" offset="0.914062"/><stop stop-opacity="1" stop-color="rgb(95.036316%, 79.208374%, 21.673584%)" offset="0.917969"/><stop stop-opacity="1" stop-color="rgb(95.236206%, 79.470825%, 21.50116%)" offset="0.921875"/><stop stop-opacity="1" stop-color="rgb(95.43457%, 79.73175%, 21.327209%)" offset="0.925781"/><stop stop-opacity="1" stop-color="rgb(95.63446%, 79.994202%, 21.154785%)" offset="0.929688"/><stop stop-opacity="1" stop-color="rgb(95.832825%, 80.255127%, 20.980835%)" offset="0.933594"/><stop stop-opacity="1" stop-color="rgb(96.032715%, 80.517578%, 20.808411%)" offset="0.9375"/><stop stop-opacity="1" stop-color="rgb(96.231079%, 80.780029%, 20.63446%)" offset="0.941406"/><stop stop-opacity="1" stop-color="rgb(96.430969%, 81.04248%, 20.462036%)" offset="0.945312"/><stop stop-opacity="1" stop-color="rgb(96.629333%, 81.303406%, 20.288086%)" offset="0.949219"/><stop stop-opacity="1" stop-color="rgb(96.829224%, 81.565857%, 20.115662%)" offset="0.953125"/><stop stop-opacity="1" stop-color="rgb(97.027588%, 81.826782%, 19.943237%)" offset="0.957031"/><stop stop-opacity="1" stop-color="rgb(97.227478%, 82.089233%, 19.770813%)" offset="0.960938"/><stop stop-opacity="1" stop-color="rgb(97.425842%, 82.351685%, 19.596863%)" offset="0.964844"/><stop stop-opacity="1" stop-color="rgb(97.625732%, 82.614136%, 19.424438%)" offset="0.96875"/><stop stop-opacity="1" stop-color="rgb(97.824097%, 82.875061%, 19.250488%)" offset="0.972656"/><stop stop-opacity="1" stop-color="rgb(98.023987%, 83.137512%, 19.078064%)" offset="0.976562"/><stop stop-opacity="1" stop-color="rgb(98.222351%, 83.398438%, 18.904114%)" offset="0.980469"/><stop stop-opacity="1" stop-color="rgb(98.422241%, 83.660889%, 18.731689%)" offset="0.984375"/><stop stop-opacity="1" stop-color="rgb(98.620605%, 83.92334%, 18.557739%)" offset="0.988281"/><stop stop-opacity="1" stop-color="rgb(98.820496%, 84.185791%, 18.385315%)" offset="0.992188"/><stop stop-opacity="1" stop-color="rgb(99.01886%, 84.446716%, 18.211365%)" offset="0.996094"/><stop stop-opacity="1" stop-color="rgb(99.21875%, 84.709167%, 18.03894%)" offset="1"/></linearGradient><clipPath id="4412143799"><path d="M 113 127.121094 L 254 127.121094 L 254 135 L 113 135 Z M 113 127.121094 " clip-rule="nonzero"/></clipPath><clipPath id="42ebbb63ae"><path d="M 254 130 L 262.5 130 L 262.5 144 L 254 144 Z M 254 130 " clip-rule="nonzero"/></clipPath><clipPath id="9706f3fb57"><path d="M 209 169 L 223 169 L 223 183.371094 L 209 183.371094 Z M 209 169 " clip-rule="nonzero"/></clipPath><clipPath id="37c5d88fe8"><path d="M 138 169 L 152 169 L 152 183.371094 L 138 183.371094 Z M 138 169 " clip-rule="nonzero"/></clipPath></defs><rect x="-37.5" width="450" fill="#ffffff" y="-37.499999" height="449.999989" fill-opacity="1"/><rect x="-37.5" fill="url(#0e427fe381)" width="450" y="-37.499999" height="449.999989"/><g clip-path="url(#4412143799)"><path fill="#004aad" d="M 253.378906 133.09375 C 253.296875 133.9375 252.953125 134.316406 252.125 134.304688 C 251.566406 134.304688 251.007812 134.316406 250.449219 134.316406 L 183.308594 134.316406 C 161.121094 134.316406 138.917969 134.339844 116.726562 134.261719 C 115.628906 134.261719 113.941406 135.203125 113.417969 133.328125 C 112.714844 130.859375 113.90625 128.332031 115.917969 127.539062 C 116.800781 127.195312 117.714844 127.125 118.648438 127.125 C 161.800781 127.125 204.945312 127.125 248.097656 127.144531 C 251.890625 127.144531 253.78125 129.335938 253.378906 133.09375 " fill-opacity="1" fill-rule="nonzero"/></g><path fill="#ffffff" d="M 119.5 149.066406 C 119.535156 150.449219 119.15625 151.082031 117.644531 151.023438 C 112.574219 150.898438 113.457031 151.621094 113.367188 146.894531 C 113.347656 145.789062 113.367188 144.679688 113.367188 143.578125 C 113.367188 141.777344 113.417969 140 113.347656 138.222656 C 113.296875 136.925781 113.667969 136.300781 115.09375 136.335938 C 120.289062 136.4375 119.410156 135.773438 119.480469 140.578125 C 119.515625 143.402344 119.445312 146.238281 119.5 149.066406 " fill-opacity="1" fill-rule="nonzero"/><path fill="#ffffff" d="M 126.90625 143.832031 C 126.90625 143.832031 126.90625 143.832031 126.890625 143.832031 C 126.890625 145.742188 126.871094 147.644531 126.90625 149.550781 C 126.925781 150.539062 126.53125 150.953125 125.507812 151.023438 C 121.507812 151.3125 121.53125 151.347656 121.53125 147.34375 C 121.53125 144.316406 121.585938 141.292969 121.496094 138.273438 C 121.460938 136.875 121.890625 136.3125 123.386719 136.3125 C 126.90625 136.3125 126.90625 136.257812 126.90625 139.769531 L 126.90625 143.832031 " fill-opacity="1" fill-rule="nonzero"/><path fill="#ffffff" d="M 134.339844 149.375 C 134.375 150.527344 133.960938 151.046875 132.738281 151.023438 C 128.207031 150.976562 128.992188 151.347656 128.957031 147.34375 C 128.902344 144.316406 128.992188 141.316406 128.921875 138.292969 C 128.886719 136.890625 129.300781 136.3125 130.789062 136.3125 C 134.316406 136.3125 134.316406 136.257812 134.316406 139.769531 L 134.316406 143.816406 C 134.316406 145.664062 134.28125 147.519531 134.339844 149.375 " fill-opacity="1" fill-rule="nonzero"/><path fill="#ffffff" d="M 141.765625 149.410156 C 141.800781 150.609375 141.292969 151.046875 140.105469 151.023438 C 135.703125 150.976562 136.402344 151.332031 136.367188 147.484375 C 136.332031 144.335938 136.402344 141.1875 136.347656 138.054688 C 136.3125 136.761719 136.820312 136.347656 138.074219 136.335938 C 141.742188 136.242188 141.742188 136.207031 141.742188 139.804688 L 141.742188 143.867188 C 141.742188 145.71875 141.707031 147.554688 141.765625 149.410156 " fill-opacity="1" fill-rule="nonzero"/><path fill="#ffffff" d="M 149.175781 149.296875 C 149.210938 150.5625 148.761719 151.046875 147.460938 151.023438 C 143.132812 150.953125 143.851562 151.347656 143.78125 147.414062 C 143.761719 146.113281 143.78125 144.820312 143.78125 143.527344 C 143.78125 143.527344 143.78125 143.527344 143.796875 143.527344 C 143.796875 141.617188 143.816406 139.714844 143.78125 137.808594 C 143.761719 136.796875 144.175781 136.402344 145.199219 136.335938 C 149.175781 136.046875 149.175781 136.011719 149.175781 140.058594 C 149.175781 143.128906 149.132812 146.203125 149.175781 149.296875 " fill-opacity="1" fill-rule="nonzero"/><path fill="#ffffff" d="M 156.601562 149.296875 C 156.625 150.574219 156.152344 151.046875 154.875 151.023438 C 150.5625 150.953125 151.261719 151.347656 151.207031 147.390625 C 151.1875 146.167969 151.207031 144.925781 151.207031 143.703125 C 151.207031 141.730469 151.226562 139.769531 151.207031 137.789062 C 151.1875 136.785156 151.621094 136.402344 152.625 136.335938 C 156.546875 136.058594 156.582031 136.058594 156.582031 139.894531 C 156.582031 143.023438 156.546875 146.167969 156.601562 149.296875 " fill-opacity="1" fill-rule="nonzero"/><path fill="#ffffff" d="M 164.027344 149.316406 C 164.050781 150.597656 163.542969 151.046875 162.285156 151.023438 C 158.042969 150.976562 158.667969 151.332031 158.632812 147.574219 C 158.617188 146.226562 158.617188 144.855469 158.617188 143.507812 C 158.632812 143.507812 158.632812 143.507812 158.632812 143.507812 C 158.632812 141.601562 158.652344 139.699219 158.617188 137.789062 C 158.597656 136.761719 159.046875 136.402344 160.050781 136.335938 C 164.015625 136.058594 164.015625 136.023438 164.015625 139.894531 C 164.015625 143.042969 163.972656 146.167969 164.027344 149.316406 " fill-opacity="1" fill-rule="nonzero"/><path fill="#ffffff" d="M 171.441406 149.351562 C 171.476562 150.527344 171.0625 151.046875 169.839844 151.023438 C 165.308594 150.976562 166.101562 151.347656 166.046875 147.34375 C 166.011719 144.316406 166.101562 141.316406 166.023438 138.292969 C 165.988281 136.890625 166.402344 136.3125 167.898438 136.3125 C 171.417969 136.3125 171.417969 136.257812 171.417969 139.769531 L 171.417969 143.816406 C 171.417969 145.664062 171.382812 147.519531 171.441406 149.351562 " fill-opacity="1" fill-rule="nonzero"/><path fill="#ffffff" d="M 178.851562 139.894531 C 178.867188 141.1875 178.851562 142.46875 178.851562 143.761719 C 178.851562 145.664062 178.8125 147.589844 178.851562 149.5 C 178.886719 150.597656 178.417969 151.023438 177.320312 151.023438 C 172.699219 150.988281 173.527344 151.332031 173.472656 147.390625 C 173.4375 144.316406 173.507812 141.246094 173.4375 138.167969 C 173.414062 136.796875 173.886719 136.3125 175.253906 136.335938 C 179.386719 136.402344 178.796875 136.082031 178.851562 139.894531 " fill-opacity="1" fill-rule="nonzero"/><path fill="#ffffff" d="M 201.117188 143.816406 C 201.117188 145.664062 201.082031 147.519531 201.117188 149.375 C 201.152344 150.527344 200.757812 151.046875 199.515625 151.023438 C 194.984375 150.976562 195.792969 151.347656 195.742188 147.34375 C 195.699219 144.316406 195.777344 141.316406 195.699219 138.292969 C 195.664062 136.890625 196.078125 136.3125 197.574219 136.3125 C 201.117188 136.3125 201.117188 136.257812 201.117188 139.769531 L 201.117188 143.816406 " fill-opacity="1" fill-rule="nonzero"/><path fill="#ffffff" d="M 208.527344 139.785156 L 208.527344 143.851562 C 208.527344 145.753906 208.507812 147.667969 208.527344 149.570312 C 208.542969 150.597656 208.128906 151.023438 207.109375 151.011719 C 202.269531 151.011719 203.21875 151.347656 203.148438 147.300781 C 203.113281 144.230469 203.183594 141.152344 203.132812 138.078125 C 203.113281 136.820312 203.5625 136.347656 204.839844 136.335938 C 208.527344 136.242188 208.527344 136.1875 208.527344 139.785156 " fill-opacity="1" fill-rule="nonzero"/><path fill="#ffffff" d="M 215.957031 143.867188 C 215.957031 145.71875 215.921875 147.574219 215.957031 149.410156 C 215.992188 150.609375 215.484375 151.046875 214.316406 151.023438 C 209.890625 150.976562 210.617188 151.332031 210.582031 147.460938 C 210.539062 144.335938 210.617188 141.1875 210.558594 138.054688 C 210.523438 136.761719 211.03125 136.347656 212.289062 136.335938 C 215.957031 136.242188 215.957031 136.207031 215.957031 139.804688 L 215.957031 143.867188 " fill-opacity="1" fill-rule="nonzero"/><path fill="#ffffff" d="M 223.382812 149.296875 C 223.417969 150.5625 222.964844 151.046875 221.675781 151.023438 C 217.339844 150.953125 218.054688 151.347656 217.984375 147.414062 C 217.972656 146.113281 217.984375 144.820312 217.984375 143.527344 C 217.984375 141.617188 218.019531 139.714844 217.984375 137.808594 C 217.972656 136.796875 218.378906 136.402344 219.390625 136.335938 C 223.382812 136.046875 223.382812 136.011719 223.382812 140.058594 C 223.367188 143.128906 223.324219 146.203125 223.382812 149.296875 " fill-opacity="1" fill-rule="nonzero"/><path fill="#ffffff" d="M 230.8125 149.339844 C 230.828125 150.492188 230.46875 151.046875 229.226562 151.023438 C 224.660156 150.976562 225.46875 151.347656 225.417969 147.355469 C 225.375 144.335938 225.488281 141.328125 225.375 138.308594 C 225.328125 136.75 225.9375 136.3125 227.429688 136.3125 C 230.792969 136.347656 230.792969 136.300781 230.792969 139.734375 L 230.792969 143.796875 C 230.792969 145.648438 230.757812 147.496094 230.8125 149.339844 " fill-opacity="1" fill-rule="nonzero"/><path fill="#ffffff" d="M 238.21875 143.507812 C 238.207031 145.488281 238.164062 147.449219 238.21875 149.421875 C 238.253906 150.632812 237.753906 151.046875 236.570312 151.023438 C 232.164062 150.976562 232.878906 151.332031 232.84375 147.460938 C 232.808594 144.335938 232.878906 141.1875 232.808594 138.042969 C 232.789062 136.761719 233.292969 136.347656 234.550781 136.335938 C 238.21875 136.257812 238.21875 136.207031 238.21875 139.820312 L 238.21875 143.507812 " fill-opacity="1" fill-rule="nonzero"/><path fill="#ffffff" d="M 253.378906 149.570312 C 253.378906 150.597656 252.988281 151.023438 251.960938 151.011719 C 248.5625 150.988281 245.160156 150.988281 241.761719 151.023438 C 240.648438 151.023438 240.214844 150.574219 240.234375 149.480469 C 240.292969 147.496094 240.257812 145.523438 240.257812 143.542969 C 240.257812 141.636719 240.269531 139.714844 240.257812 137.808594 C 240.234375 136.785156 240.648438 136.347656 241.675781 136.347656 C 245.125 136.371094 248.597656 136.371094 252.054688 136.347656 C 252.988281 136.347656 253.378906 136.785156 253.367188 137.71875 C 253.34375 141.671875 253.34375 145.613281 253.378906 149.570312 " fill-opacity="1" fill-rule="nonzero"/><path fill="#ffffff" d="M 193.703125 138.097656 C 193.648438 150.527344 193.648438 162.953125 193.667969 175.375 C 193.667969 176.597656 193.199219 177.019531 192.011719 177 C 188.941406 176.964844 185.851562 176.929688 182.753906 177.019531 C 181.21875 177.070312 180.863281 176.457031 180.882812 175.050781 C 180.941406 168.925781 180.90625 162.804688 180.90625 156.695312 C 180.90625 156.695312 180.90625 156.695312 180.882812 156.695312 C 180.882812 150.632812 180.953125 144.566406 180.847656 138.503906 C 180.828125 136.761719 181.425781 136.257812 183.097656 136.3125 C 185.992188 136.425781 188.90625 136.382812 191.800781 136.335938 C 193.09375 136.3125 193.726562 136.65625 193.703125 138.097656 " fill-opacity="1" fill-rule="nonzero"/><path fill="#000000" d="M 178.867188 155.308594 C 178.851562 156.90625 178.636719 157.734375 176.675781 157.734375 C 156.28125 157.664062 135.898438 157.664062 115.503906 157.734375 C 113.542969 157.734375 113.332031 156.925781 113.3125 155.308594 C 113.296875 153.652344 113.726562 153.039062 115.488281 153.0625 C 125.683594 153.144531 135.882812 153.097656 146.078125 153.097656 C 156.28125 153.097656 166.472656 153.144531 176.675781 153.0625 C 178.4375 153.0625 178.886719 153.636719 178.867188 155.308594 " fill-opacity="1" fill-rule="nonzero"/><path fill="#000000" d="M 253.421875 155.308594 C 253.402344 156.925781 253.203125 157.734375 251.246094 157.734375 C 233.457031 157.664062 215.667969 157.664062 197.878906 157.734375 C 195.898438 157.734375 195.722656 156.90625 195.699219 155.289062 C 195.664062 153.636719 196.113281 153.039062 197.878906 153.0625 C 206.835938 153.144531 215.792969 153.097656 224.75 153.097656 C 233.582031 153.097656 242.414062 153.144531 251.246094 153.0625 C 253.023438 153.039062 253.4375 153.652344 253.421875 155.308594 " fill-opacity="1" fill-rule="nonzero"/><g clip-path="url(#42ebbb63ae)"><path fill="#ffffff" d="M 258.707031 141.890625 C 257.414062 142.066406 256.816406 140.832031 256.929688 138.492188 C 256.964844 137.464844 257.105469 136.507812 258.257812 136.117188 C 259.949219 135.539062 260.492188 136.136719 260.46875 138.617188 C 260.449219 140.023438 260.722656 141.636719 258.707031 141.890625 Z M 262.375 135.378906 C 262.085938 132.679688 260.074219 131.007812 257.300781 130.953125 C 256.691406 130.9375 256.066406 130.902344 255.453125 130.953125 C 255.074219 130.988281 254.730469 130.972656 254.460938 130.902344 L 254.460938 133.109375 C 256.042969 132.828125 257.738281 132.589844 259.386719 133.683594 C 255.375 134.800781 254.890625 135.46875 254.925781 139.574219 L 254.925781 140.128906 C 255.019531 142.304688 256.445312 143.851562 258.4375 143.957031 C 260.433594 144.070312 262.175781 142.664062 262.375 140.554688 C 262.535156 138.847656 262.554688 137.085938 262.375 135.378906 " fill-opacity="1" fill-rule="nonzero"/></g><path fill="#004aad" d="M 253.367188 171.996094 C 253.332031 175.398438 251.730469 176.976562 248.351562 176.976562 C 242.589844 177 236.835938 176.964844 231.09375 177.019531 C 229.765625 177.019531 229.191406 176.710938 228.972656 175.222656 C 227.984375 168.546875 223.773438 164.410156 217.410156 163.558594 C 210.339844 162.644531 203.90625 167.730469 203.042969 175.128906 C 202.84375 176.722656 202.234375 177.019531 200.828125 177.019531 C 195.742188 177 195.742188 177.035156 195.742188 171.980469 C 195.742188 168.582031 195.828125 165.179688 195.699219 161.78125 C 195.652344 160.109375 196.277344 159.695312 197.855469 159.695312 C 206.765625 159.765625 215.667969 159.730469 224.554688 159.730469 C 233.398438 159.730469 242.230469 159.765625 251.082031 159.695312 C 252.824219 159.679688 253.492188 160.144531 253.402344 161.976562 C 253.273438 165.308594 253.402344 168.652344 253.367188 171.996094 " fill-opacity="1" fill-rule="nonzero"/><g clip-path="url(#9706f3fb57)"><path fill="#000000" d="M 222.585938 176.570312 C 222.550781 180.195312 219.609375 183.039062 215.886719 183.003906 C 212.246094 182.984375 209.429688 180.144531 209.429688 176.527344 C 209.429688 172.917969 212.519531 169.769531 216.011719 169.851562 C 219.609375 169.929688 222.609375 173 222.585938 176.570312 " fill-opacity="1" fill-rule="nonzero"/></g><path fill="#004aad" d="M 178.832031 175.09375 C 178.867188 176.546875 178.359375 177.035156 176.929688 177.019531 C 171.222656 176.941406 165.539062 176.929688 159.855469 177.019531 C 158.238281 177.046875 157.71875 176.421875 157.523438 174.925781 C 156.660156 168.328125 151.496094 163.671875 144.820312 163.402344 C 144.679688 163.402344 144.519531 163.382812 144.371094 163.382812 L 144.371094 159.730469 L 146.226562 159.730469 C 156.316406 159.730469 166.382812 159.765625 176.457031 159.695312 C 178.359375 159.679688 178.902344 160.234375 178.851562 162.105469 C 178.726562 166.4375 178.761719 170.773438 178.832031 175.09375 " fill-opacity="1" fill-rule="nonzero"/><g clip-path="url(#37c5d88fe8)"><path fill="#000000" d="M 151.296875 176.570312 C 151.242188 180.125 148.328125 182.984375 144.714844 183.003906 C 140.902344 183.039062 138.132812 180.320312 138.132812 176.527344 C 138.132812 172.824219 141.082031 169.824219 144.679688 169.851562 C 148.222656 169.875 151.347656 173.058594 151.296875 176.570312 " fill-opacity="1" fill-rule="nonzero"/></g><path fill="#004aad" d="M 144.371094 159.730469 L 144.371094 163.382812 C 138.671875 163.382812 133.417969 167.625 131.964844 173.4375 C 131.929688 173.542969 131.894531 173.667969 131.851562 173.792969 C 131.457031 174.769531 132.175781 176.132812 131.226562 176.746094 C 130.25 177.378906 128.941406 176.964844 127.769531 176.976562 C 124.496094 177.019531 121.207031 177.019531 117.933594 176.976562 C 114.949219 176.964844 113.382812 175.398438 113.367188 172.398438 C 113.347656 168.871094 113.4375 165.34375 113.332031 161.816406 C 113.277344 160.199219 113.816406 159.695312 115.453125 159.695312 C 125.09375 159.765625 134.730469 159.730469 144.371094 159.730469 " fill-opacity="1" fill-rule="nonzero"/><g fill="#000000" fill-opacity="1"><g transform="translate(42.484979, 221.176905)"><g><path d="M 12.6875 0.3125 C 10.5 0.3125 8.5625 -0.078125 6.875 -0.859375 C 5.1875 -1.648438 3.867188 -2.78125 2.921875 -4.25 C 1.972656 -5.71875 1.5 -7.492188 1.5 -9.578125 C 1.5 -11.253906 1.796875 -12.757812 2.390625 -14.09375 C 2.984375 -15.425781 3.816406 -16.5625 4.890625 -17.5 C 5.960938 -18.4375 7.234375 -19.148438 8.703125 -19.640625 C 10.171875 -20.128906 11.78125 -20.375 13.53125 -20.375 C 14.582031 -20.375 15.625 -20.265625 16.65625 -20.046875 C 17.695312 -19.828125 18.5625 -19.546875 19.25 -19.203125 L 19.421875 -14.359375 L 17.265625 -14.28125 L 16.203125 -17.4375 C 15.742188 -17.6875 15.238281 -17.859375 14.6875 -17.953125 C 14.144531 -18.054688 13.644531 -18.109375 13.1875 -18.109375 C 11.875 -18.109375 10.742188 -17.800781 9.796875 -17.1875 C 8.847656 -16.570312 8.132812 -15.695312 7.65625 -14.5625 C 7.175781 -13.425781 6.9375 -12.082031 6.9375 -10.53125 C 6.9375 -8.769531 7.234375 -7.25 7.828125 -5.96875 C 8.421875 -4.695312 9.21875 -3.71875 10.21875 -3.03125 C 11.21875 -2.351562 12.320312 -2.015625 13.53125 -2.015625 C 13.875 -2.015625 14.265625 -2.0625 14.703125 -2.15625 C 15.148438 -2.25 15.546875 -2.394531 15.890625 -2.59375 L 15.171875 -0.75 L 15.171875 -4.375 C 15.171875 -4.851562 15.160156 -5.363281 15.140625 -5.90625 C 15.117188 -6.457031 15.085938 -6.878906 15.046875 -7.171875 L 12.609375 -7.6875 L 12.71875 -9.46875 L 21.296875 -9.46875 L 21.390625 -7.765625 L 19.6875 -7.21875 C 19.664062 -6.988281 19.660156 -6.632812 19.671875 -6.15625 C 19.679688 -5.675781 19.6875 -5.175781 19.6875 -4.65625 C 19.6875 -4.257812 19.695312 -3.8125 19.71875 -3.3125 C 19.738281 -2.8125 19.765625 -2.21875 19.796875 -1.53125 C 18.785156 -0.914062 17.660156 -0.453125 16.421875 -0.140625 C 15.179688 0.160156 13.9375 0.3125 12.6875 0.3125 Z M 12.6875 0.3125 "/></g></g></g><g fill="#000000" fill-opacity="1"><g transform="translate(68.258479, 221.176905)"><g><path d="M 17.78125 0.203125 C 17.132812 0.160156 16.359375 0.113281 15.453125 0.0625 C 14.554688 0.0195312 13.742188 0 13.015625 0 L 1.265625 0 L 1.15625 -1.703125 L 3.34375 -2.25 C 3.394531 -2.363281 3.4375 -2.660156 3.46875 -3.140625 C 3.5 -3.617188 3.523438 -4.238281 3.546875 -5 C 3.578125 -5.769531 3.59375 -6.609375 3.59375 -7.515625 L 3.59375 -12.515625 C 3.59375 -13.472656 3.578125 -14.332031 3.546875 -15.09375 C 3.523438 -15.851562 3.5 -16.472656 3.46875 -16.953125 C 3.4375 -17.429688 3.394531 -17.71875 3.34375 -17.8125 L 1.15625 -18.359375 L 1.265625 -20.0625 L 11.796875 -20.0625 C 12.242188 -20.0625 12.789062 -20.066406 13.4375 -20.078125 C 14.09375 -20.085938 14.734375 -20.109375 15.359375 -20.140625 C 15.984375 -20.179688 16.515625 -20.210938 16.953125 -20.234375 L 17.875 -15.171875 L 15.890625 -14.90625 L 14.625 -17.90625 C 14.332031 -17.976562 14.066406 -18.023438 13.828125 -18.046875 C 13.585938 -18.066406 13.332031 -18.078125 13.0625 -18.078125 L 10.453125 -18.078125 C 10.023438 -18.078125 9.609375 -18.070312 9.203125 -18.0625 C 8.804688 -18.050781 8.484375 -18.023438 8.234375 -17.984375 C 8.234375 -17.796875 8.226562 -17.519531 8.21875 -17.15625 C 8.207031 -16.789062 8.195312 -16.320312 8.1875 -15.75 C 8.175781 -15.1875 8.171875 -14.515625 8.171875 -13.734375 L 8.171875 -6.5625 C 8.171875 -5.832031 8.175781 -5.179688 8.1875 -4.609375 C 8.195312 -4.046875 8.207031 -3.570312 8.21875 -3.1875 C 8.226562 -2.8125 8.234375 -2.523438 8.234375 -2.328125 C 8.648438 -2.253906 9.082031 -2.207031 9.53125 -2.1875 C 9.988281 -2.164062 10.5625 -2.15625 11.25 -2.15625 L 13.0625 -2.15625 C 13.65625 -2.15625 14.09375 -2.160156 14.375 -2.171875 C 14.65625 -2.179688 14.867188 -2.195312 15.015625 -2.21875 C 15.171875 -2.238281 15.328125 -2.265625 15.484375 -2.296875 L 17.359375 -5.703125 L 19.3125 -5.328125 Z M 13.4375 -6.84375 L 13.09375 -9.125 C 12.9375 -9.144531 12.6875 -9.160156 12.34375 -9.171875 C 12 -9.179688 11.597656 -9.1875 11.140625 -9.1875 L 9.328125 -9.1875 C 8.941406 -9.1875 8.570312 -9.175781 8.21875 -9.15625 C 7.863281 -9.132812 7.597656 -9.113281 7.421875 -9.09375 L 7.421875 -11.515625 C 7.597656 -11.492188 7.863281 -11.472656 8.21875 -11.453125 C 8.570312 -11.429688 8.941406 -11.421875 9.328125 -11.421875 L 11.140625 -11.421875 C 11.597656 -11.421875 12 -11.425781 12.34375 -11.4375 C 12.6875 -11.445312 12.9375 -11.453125 13.09375 -11.453125 L 13.4375 -13.734375 L 15.3125 -13.734375 L 15.3125 -6.84375 Z M 13.4375 -6.84375 "/></g></g></g><g fill="#000000" fill-opacity="1"><g transform="translate(91.36656, 221.176905)"><g><path d="M 12.3125 0.3125 C 10.207031 0.3125 8.335938 -0.117188 6.703125 -0.984375 C 5.078125 -1.859375 3.800781 -3.050781 2.875 -4.5625 C 1.957031 -6.082031 1.5 -7.820312 1.5 -9.78125 C 1.5 -11.832031 1.957031 -13.65625 2.875 -15.25 C 3.800781 -16.84375 5.082031 -18.09375 6.71875 -19 C 8.363281 -19.914062 10.238281 -20.375 12.34375 -20.375 C 14.363281 -20.375 16.148438 -19.945312 17.703125 -19.09375 C 19.253906 -18.238281 20.472656 -17.054688 21.359375 -15.546875 C 22.253906 -14.046875 22.703125 -12.289062 22.703125 -10.28125 C 22.703125 -8.53125 22.375 -6.992188 21.71875 -5.671875 C 21.070312 -4.347656 20.226562 -3.242188 19.1875 -2.359375 C 18.15625 -1.472656 17.035156 -0.804688 15.828125 -0.359375 C 14.617188 0.0859375 13.445312 0.3125 12.3125 0.3125 Z M 12.578125 -2.25 C 13.628906 -2.25 14.503906 -2.53125 15.203125 -3.09375 C 15.910156 -3.65625 16.441406 -4.46875 16.796875 -5.53125 C 17.148438 -6.601562 17.328125 -7.90625 17.328125 -9.4375 C 17.328125 -11.1875 17.097656 -12.710938 16.640625 -14.015625 C 16.191406 -15.316406 15.566406 -16.320312 14.765625 -17.03125 C 13.960938 -17.75 13.015625 -18.109375 11.921875 -18.109375 C 10.359375 -18.109375 9.128906 -17.457031 8.234375 -16.15625 C 7.347656 -14.863281 6.90625 -13.066406 6.90625 -10.765625 C 6.90625 -9.078125 7.148438 -7.59375 7.640625 -6.3125 C 8.128906 -5.039062 8.796875 -4.046875 9.640625 -3.328125 C 10.484375 -2.609375 11.460938 -2.25 12.578125 -2.25 Z M 12.578125 -2.25 "/></g></g></g><g fill="#000000" fill-opacity="1"><g transform="translate(118.78032, 221.176905)"><g/></g></g><g fill="#000000" fill-opacity="1"><g transform="translate(128.732158, 221.176905)"><g><path d="M 8.03125 0.3125 C 7.050781 0.3125 5.984375 0.175781 4.828125 -0.09375 C 3.679688 -0.375 2.695312 -0.742188 1.875 -1.203125 L 1.703125 -6.25 L 3.890625 -6.390625 L 5.0625 -2.875 C 5.539062 -2.570312 6.085938 -2.335938 6.703125 -2.171875 C 7.316406 -2.003906 7.910156 -1.921875 8.484375 -1.921875 C 9.503906 -1.921875 10.28125 -2.132812 10.8125 -2.5625 C 11.351562 -3 11.625 -3.582031 11.625 -4.3125 C 11.625 -5.101562 11.390625 -5.738281 10.921875 -6.21875 C 10.453125 -6.695312 9.84375 -7.109375 9.09375 -7.453125 C 8.34375 -7.796875 7.546875 -8.128906 6.703125 -8.453125 C 5.859375 -8.785156 5.054688 -9.1875 4.296875 -9.65625 C 3.546875 -10.125 2.9375 -10.722656 2.46875 -11.453125 C 2.007812 -12.179688 1.78125 -13.125 1.78125 -14.28125 C 1.78125 -15.519531 2.125 -16.597656 2.8125 -17.515625 C 3.507812 -18.441406 4.488281 -19.160156 5.75 -19.671875 C 7.019531 -20.179688 8.488281 -20.4375 10.15625 -20.4375 C 10.675781 -20.4375 11.242188 -20.398438 11.859375 -20.328125 C 12.472656 -20.265625 13.066406 -20.160156 13.640625 -20.015625 C 14.210938 -19.867188 14.703125 -19.703125 15.109375 -19.515625 L 15.515625 -14.53125 L 13.328125 -14.390625 L 12.234375 -17.734375 C 11.523438 -18.097656 10.71875 -18.28125 9.8125 -18.28125 C 8.875 -18.28125 8.101562 -18.046875 7.5 -17.578125 C 6.894531 -17.117188 6.59375 -16.46875 6.59375 -15.625 C 6.59375 -14.875 6.832031 -14.25 7.3125 -13.75 C 7.789062 -13.257812 8.410156 -12.835938 9.171875 -12.484375 C 9.941406 -12.140625 10.753906 -11.796875 11.609375 -11.453125 C 12.460938 -11.109375 13.265625 -10.703125 14.015625 -10.234375 C 14.765625 -9.765625 15.378906 -9.175781 15.859375 -8.46875 C 16.335938 -7.769531 16.578125 -6.875 16.578125 -5.78125 C 16.578125 -4.613281 16.222656 -3.566406 15.515625 -2.640625 C 14.804688 -1.722656 13.804688 -1 12.515625 -0.46875 C 11.234375 0.0507812 9.738281 0.3125 8.03125 0.3125 Z M 8.03125 0.3125 "/></g></g></g><g fill="#000000" fill-opacity="1"><g transform="translate(149.482367, 221.176905)"><g><path d="M 12.78125 0.3125 C 10.570312 0.3125 8.625 -0.078125 6.9375 -0.859375 C 5.25 -1.648438 3.929688 -2.789062 2.984375 -4.28125 C 2.046875 -5.78125 1.578125 -7.585938 1.578125 -9.703125 C 1.578125 -11.347656 1.863281 -12.832031 2.4375 -14.15625 C 3.019531 -15.476562 3.851562 -16.597656 4.9375 -17.515625 C 6.019531 -18.441406 7.289062 -19.148438 8.75 -19.640625 C 10.207031 -20.128906 11.800781 -20.375 13.53125 -20.375 C 14.582031 -20.375 15.628906 -20.265625 16.671875 -20.046875 C 17.722656 -19.828125 18.613281 -19.546875 19.34375 -19.203125 L 19.578125 -13.984375 L 17.46875 -13.84375 L 16.265625 -17.4375 C 15.835938 -17.664062 15.359375 -17.832031 14.828125 -17.9375 C 14.304688 -18.050781 13.773438 -18.109375 13.234375 -18.109375 C 11.910156 -18.109375 10.789062 -17.800781 9.875 -17.1875 C 8.96875 -16.570312 8.273438 -15.695312 7.796875 -14.5625 C 7.316406 -13.425781 7.078125 -12.082031 7.078125 -10.53125 C 7.078125 -8.769531 7.363281 -7.257812 7.9375 -6 C 8.519531 -4.738281 9.300781 -3.765625 10.28125 -3.078125 C 11.269531 -2.390625 12.363281 -2.046875 13.5625 -2.046875 C 14.207031 -2.046875 14.832031 -2.128906 15.4375 -2.296875 C 16.039062 -2.472656 16.546875 -2.734375 16.953125 -3.078125 L 18.1875 -6.21875 L 20.46875 -5.984375 L 19.484375 -1.4375 C 18.773438 -0.976562 17.8125 -0.570312 16.59375 -0.21875 C 15.375 0.132812 14.101562 0.3125 12.78125 0.3125 Z M 12.78125 0.3125 "/></g></g></g><g fill="#000000" fill-opacity="1"><g transform="translate(173.957329, 221.176905)"><g><path d="M 13.53125 0 L 13.4375 -1.703125 L 15.546875 -2.25 C 15.597656 -2.394531 15.640625 -2.710938 15.671875 -3.203125 C 15.703125 -3.691406 15.726562 -4.3125 15.75 -5.0625 C 15.78125 -5.8125 15.796875 -6.628906 15.796875 -7.515625 L 15.796875 -12.515625 C 15.796875 -13.441406 15.78125 -14.285156 15.75 -15.046875 C 15.726562 -15.816406 15.703125 -16.445312 15.671875 -16.9375 C 15.640625 -17.425781 15.597656 -17.71875 15.546875 -17.8125 L 13.4375 -18.359375 L 13.53125 -20.0625 L 22.734375 -20.0625 L 22.828125 -18.359375 L 20.671875 -17.8125 C 20.628906 -17.71875 20.59375 -17.398438 20.5625 -16.859375 C 20.53125 -16.328125 20.492188 -15.671875 20.453125 -14.890625 C 20.421875 -14.117188 20.40625 -13.328125 20.40625 -12.515625 L 20.40625 -7.515625 C 20.40625 -6.742188 20.421875 -5.96875 20.453125 -5.1875 C 20.492188 -4.414062 20.53125 -3.769531 20.5625 -3.25 C 20.59375 -2.726562 20.628906 -2.394531 20.671875 -2.25 L 22.828125 -1.703125 L 22.734375 0 Z M 1.296875 0 L 1.203125 -1.703125 L 3.34375 -2.25 C 3.394531 -2.363281 3.4375 -2.660156 3.46875 -3.140625 C 3.5 -3.617188 3.523438 -4.238281 3.546875 -5 C 3.578125 -5.769531 3.59375 -6.609375 3.59375 -7.515625 L 3.59375 -12.515625 C 3.59375 -13.472656 3.578125 -14.332031 3.546875 -15.09375 C 3.523438 -15.851562 3.5 -16.476562 3.46875 -16.96875 C 3.4375 -17.457031 3.394531 -17.738281 3.34375 -17.8125 L 1.203125 -18.359375 L 1.296875 -20.0625 L 10.421875 -20.0625 L 10.53125 -18.359375 L 8.40625 -17.8125 C 8.363281 -17.71875 8.320312 -17.425781 8.28125 -16.9375 C 8.25 -16.445312 8.226562 -15.816406 8.21875 -15.046875 C 8.207031 -14.285156 8.203125 -13.441406 8.203125 -12.515625 L 8.203125 -7.515625 C 8.203125 -6.628906 8.207031 -5.8125 8.21875 -5.0625 C 8.226562 -4.3125 8.25 -3.691406 8.28125 -3.203125 C 8.320312 -2.710938 8.363281 -2.394531 8.40625 -2.25 L 10.53125 -1.703125 L 10.421875 0 Z M 7.453125 -8.953125 L 7.453125 -11.546875 C 7.992188 -11.484375 8.617188 -11.4375 9.328125 -11.40625 C 10.035156 -11.382812 10.925781 -11.375 12 -11.375 C 13.070312 -11.375 13.957031 -11.382812 14.65625 -11.40625 C 15.363281 -11.4375 15.992188 -11.484375 16.546875 -11.546875 L 16.546875 -8.953125 C 16.066406 -8.972656 15.472656 -9 14.765625 -9.03125 C 14.054688 -9.070312 13.132812 -9.09375 12 -9.09375 C 10.851562 -9.09375 9.925781 -9.070312 9.21875 -9.03125 C 8.519531 -9 7.929688 -8.972656 7.453125 -8.953125 Z M 7.453125 -8.953125 "/></g></g></g><g fill="#000000" fill-opacity="1"><g transform="translate(201.200229, 221.176905)"><g><path d="M 12.3125 0.3125 C 10.207031 0.3125 8.335938 -0.117188 6.703125 -0.984375 C 5.078125 -1.859375 3.800781 -3.050781 2.875 -4.5625 C 1.957031 -6.082031 1.5 -7.820312 1.5 -9.78125 C 1.5 -11.832031 1.957031 -13.65625 2.875 -15.25 C 3.800781 -16.84375 5.082031 -18.09375 6.71875 -19 C 8.363281 -19.914062 10.238281 -20.375 12.34375 -20.375 C 14.363281 -20.375 16.148438 -19.945312 17.703125 -19.09375 C 19.253906 -18.238281 20.472656 -17.054688 21.359375 -15.546875 C 22.253906 -14.046875 22.703125 -12.289062 22.703125 -10.28125 C 22.703125 -8.53125 22.375 -6.992188 21.71875 -5.671875 C 21.070312 -4.347656 20.226562 -3.242188 19.1875 -2.359375 C 18.15625 -1.472656 17.035156 -0.804688 15.828125 -0.359375 C 14.617188 0.0859375 13.445312 0.3125 12.3125 0.3125 Z M 12.578125 -2.25 C 13.628906 -2.25 14.503906 -2.53125 15.203125 -3.09375 C 15.910156 -3.65625 16.441406 -4.46875 16.796875 -5.53125 C 17.148438 -6.601562 17.328125 -7.90625 17.328125 -9.4375 C 17.328125 -11.1875 17.097656 -12.710938 16.640625 -14.015625 C 16.191406 -15.316406 15.566406 -16.320312 14.765625 -17.03125 C 13.960938 -17.75 13.015625 -18.109375 11.921875 -18.109375 C 10.359375 -18.109375 9.128906 -17.457031 8.234375 -16.15625 C 7.347656 -14.863281 6.90625 -13.066406 6.90625 -10.765625 C 6.90625 -9.078125 7.148438 -7.59375 7.640625 -6.3125 C 8.128906 -5.039062 8.796875 -4.046875 9.640625 -3.328125 C 10.484375 -2.609375 11.460938 -2.25 12.578125 -2.25 Z M 12.578125 -2.25 "/></g></g></g><g fill="#000000" fill-opacity="1"><g transform="translate(228.613988, 221.176905)"><g><path d="M 12.3125 0.3125 C 10.207031 0.3125 8.335938 -0.117188 6.703125 -0.984375 C 5.078125 -1.859375 3.800781 -3.050781 2.875 -4.5625 C 1.957031 -6.082031 1.5 -7.820312 1.5 -9.78125 C 1.5 -11.832031 1.957031 -13.65625 2.875 -15.25 C 3.800781 -16.84375 5.082031 -18.09375 6.71875 -19 C 8.363281 -19.914062 10.238281 -20.375 12.34375 -20.375 C 14.363281 -20.375 16.148438 -19.945312 17.703125 -19.09375 C 19.253906 -18.238281 20.472656 -17.054688 21.359375 -15.546875 C 22.253906 -14.046875 22.703125 -12.289062 22.703125 -10.28125 C 22.703125 -8.53125 22.375 -6.992188 21.71875 -5.671875 C 21.070312 -4.347656 20.226562 -3.242188 19.1875 -2.359375 C 18.15625 -1.472656 17.035156 -0.804688 15.828125 -0.359375 C 14.617188 0.0859375 13.445312 0.3125 12.3125 0.3125 Z M 12.578125 -2.25 C 13.628906 -2.25 14.503906 -2.53125 15.203125 -3.09375 C 15.910156 -3.65625 16.441406 -4.46875 16.796875 -5.53125 C 17.148438 -6.601562 17.328125 -7.90625 17.328125 -9.4375 C 17.328125 -11.1875 17.097656 -12.710938 16.640625 -14.015625 C 16.191406 -15.316406 15.566406 -16.320312 14.765625 -17.03125 C 13.960938 -17.75 13.015625 -18.109375 11.921875 -18.109375 C 10.359375 -18.109375 9.128906 -17.457031 8.234375 -16.15625 C 7.347656 -14.863281 6.90625 -13.066406 6.90625 -10.765625 C 6.90625 -9.078125 7.148438 -7.59375 7.640625 -6.3125 C 8.128906 -5.039062 8.796875 -4.046875 9.640625 -3.328125 C 10.484375 -2.609375 11.460938 -2.25 12.578125 -2.25 Z M 12.578125 -2.25 "/></g></g></g><g fill="#000000" fill-opacity="1"><g transform="translate(256.027736, 221.176905)"><g><path d="M 17.0625 0.234375 C 16.46875 0.171875 15.828125 0.125 15.140625 0.09375 C 14.453125 0.0703125 13.796875 0.0507812 13.171875 0.03125 C 12.546875 0.0078125 12.050781 0 11.6875 0 L 1.328125 0 L 1.234375 -1.703125 L 3.421875 -2.25 C 3.460938 -2.363281 3.492188 -2.675781 3.515625 -3.1875 C 3.546875 -3.707031 3.570312 -4.347656 3.59375 -5.109375 C 3.613281 -5.867188 3.625 -6.671875 3.625 -7.515625 L 3.625 -12.515625 C 3.625 -13.398438 3.613281 -14.222656 3.59375 -14.984375 C 3.570312 -15.753906 3.546875 -16.390625 3.515625 -16.890625 C 3.492188 -17.390625 3.460938 -17.6875 3.421875 -17.78125 L 1.234375 -18.359375 L 1.328125 -20.0625 L 11.21875 -20.0625 L 11.3125 -18.28125 L 8.484375 -17.78125 C 8.453125 -17.707031 8.421875 -17.429688 8.390625 -16.953125 C 8.359375 -16.472656 8.328125 -15.851562 8.296875 -15.09375 C 8.273438 -14.332031 8.265625 -13.472656 8.265625 -12.515625 L 8.265625 -7.515625 C 8.265625 -6.191406 8.273438 -5.125 8.296875 -4.3125 C 8.328125 -3.507812 8.351562 -2.960938 8.375 -2.671875 C 8.757812 -2.597656 9.160156 -2.550781 9.578125 -2.53125 C 10.003906 -2.507812 10.515625 -2.5 11.109375 -2.5 L 12.40625 -2.5 C 12.882812 -2.5 13.320312 -2.519531 13.71875 -2.5625 C 14.125 -2.601562 14.453125 -2.648438 14.703125 -2.703125 L 16.609375 -6.421875 L 18.703125 -5.90625 Z M 17.0625 0.234375 "/></g></g></g><g fill="#000000" fill-opacity="1"><g transform="translate(278.076494, 221.176905)"><g><path d="M 17.78125 0.203125 C 17.132812 0.160156 16.359375 0.113281 15.453125 0.0625 C 14.554688 0.0195312 13.742188 0 13.015625 0 L 1.265625 0 L 1.15625 -1.703125 L 3.34375 -2.25 C 3.394531 -2.363281 3.4375 -2.660156 3.46875 -3.140625 C 3.5 -3.617188 3.523438 -4.238281 3.546875 -5 C 3.578125 -5.769531 3.59375 -6.609375 3.59375 -7.515625 L 3.59375 -12.515625 C 3.59375 -13.472656 3.578125 -14.332031 3.546875 -15.09375 C 3.523438 -15.851562 3.5 -16.472656 3.46875 -16.953125 C 3.4375 -17.429688 3.394531 -17.71875 3.34375 -17.8125 L 1.15625 -18.359375 L 1.265625 -20.0625 L 11.796875 -20.0625 C 12.242188 -20.0625 12.789062 -20.066406 13.4375 -20.078125 C 14.09375 -20.085938 14.734375 -20.109375 15.359375 -20.140625 C 15.984375 -20.179688 16.515625 -20.210938 16.953125 -20.234375 L 17.875 -15.171875 L 15.890625 -14.90625 L 14.625 -17.90625 C 14.332031 -17.976562 14.066406 -18.023438 13.828125 -18.046875 C 13.585938 -18.066406 13.332031 -18.078125 13.0625 -18.078125 L 10.453125 -18.078125 C 10.023438 -18.078125 9.609375 -18.070312 9.203125 -18.0625 C 8.804688 -18.050781 8.484375 -18.023438 8.234375 -17.984375 C 8.234375 -17.796875 8.226562 -17.519531 8.21875 -17.15625 C 8.207031 -16.789062 8.195312 -16.320312 8.1875 -15.75 C 8.175781 -15.1875 8.171875 -14.515625 8.171875 -13.734375 L 8.171875 -6.5625 C 8.171875 -5.832031 8.175781 -5.179688 8.1875 -4.609375 C 8.195312 -4.046875 8.207031 -3.570312 8.21875 -3.1875 C 8.226562 -2.8125 8.234375 -2.523438 8.234375 -2.328125 C 8.648438 -2.253906 9.082031 -2.207031 9.53125 -2.1875 C 9.988281 -2.164062 10.5625 -2.15625 11.25 -2.15625 L 13.0625 -2.15625 C 13.65625 -2.15625 14.09375 -2.160156 14.375 -2.171875 C 14.65625 -2.179688 14.867188 -2.195312 15.015625 -2.21875 C 15.171875 -2.238281 15.328125 -2.265625 15.484375 -2.296875 L 17.359375 -5.703125 L 19.3125 -5.328125 Z M 13.4375 -6.84375 L 13.09375 -9.125 C 12.9375 -9.144531 12.6875 -9.160156 12.34375 -9.171875 C 12 -9.179688 11.597656 -9.1875 11.140625 -9.1875 L 9.328125 -9.1875 C 8.941406 -9.1875 8.570312 -9.175781 8.21875 -9.15625 C 7.863281 -9.132812 7.597656 -9.113281 7.421875 -9.09375 L 7.421875 -11.515625 C 7.597656 -11.492188 7.863281 -11.472656 8.21875 -11.453125 C 8.570312 -11.429688 8.941406 -11.421875 9.328125 -11.421875 L 11.140625 -11.421875 C 11.597656 -11.421875 12 -11.425781 12.34375 -11.4375 C 12.6875 -11.445312 12.9375 -11.453125 13.09375 -11.453125 L 13.4375 -13.734375 L 15.3125 -13.734375 L 15.3125 -6.84375 Z M 13.4375 -6.84375 "/></g></g></g><g fill="#000000" fill-opacity="1"><g transform="translate(301.184563, 221.176905)"><g><path d="M 1.4375 0 L 1.328125 -1.703125 L 3.515625 -2.296875 C 3.515625 -2.429688 3.519531 -2.691406 3.53125 -3.078125 C 3.550781 -3.460938 3.566406 -3.914062 3.578125 -4.4375 C 3.585938 -4.96875 3.597656 -5.503906 3.609375 -6.046875 C 3.617188 -6.597656 3.625 -7.085938 3.625 -7.515625 L 3.625 -12.515625 C 3.625 -13.472656 3.613281 -14.332031 3.59375 -15.09375 C 3.570312 -15.851562 3.539062 -16.472656 3.5 -16.953125 C 3.46875 -17.429688 3.429688 -17.71875 3.390625 -17.8125 L 1.203125 -18.359375 L 1.296875 -20.0625 L 10.15625 -20.0625 C 12.769531 -20.0625 14.703125 -19.644531 15.953125 -18.8125 C 17.210938 -17.976562 17.84375 -16.664062 17.84375 -14.875 C 17.84375 -13.75 17.5 -12.75 16.8125 -11.875 C 16.132812 -11 15.195312 -10.3125 14 -9.8125 C 12.800781 -9.3125 11.425781 -9.0625 9.875 -9.0625 L 7.65625 -9.0625 L 7.65625 -11.046875 L 9.1875 -11.046875 C 10.332031 -11.046875 11.25 -11.390625 11.9375 -12.078125 C 12.632812 -12.773438 12.984375 -13.707031 12.984375 -14.875 C 12.984375 -15.9375 12.691406 -16.75 12.109375 -17.3125 C 11.535156 -17.875 10.691406 -18.15625 9.578125 -18.15625 L 8.265625 -18.15625 C 8.242188 -18.082031 8.226562 -17.882812 8.21875 -17.5625 C 8.207031 -17.25 8.203125 -16.847656 8.203125 -16.359375 C 8.203125 -15.867188 8.203125 -15.320312 8.203125 -14.71875 C 8.203125 -14.113281 8.203125 -13.46875 8.203125 -12.78125 L 8.203125 -7.515625 C 8.203125 -6.921875 8.207031 -6.269531 8.21875 -5.5625 C 8.226562 -4.863281 8.242188 -4.210938 8.265625 -3.609375 C 8.296875 -3.003906 8.320312 -2.566406 8.34375 -2.296875 L 10.25 -1.703125 L 10.15625 0 Z M 19.28125 0.40625 C 18 0.40625 16.863281 0.203125 15.875 -0.203125 C 14.882812 -0.617188 13.992188 -1.257812 13.203125 -2.125 C 12.421875 -2.988281 11.722656 -4.082031 11.109375 -5.40625 L 9.15625 -9.609375 L 12.953125 -10.5 L 17.015625 -4.8125 C 17.492188 -4.15625 17.960938 -3.597656 18.421875 -3.140625 C 18.878906 -2.691406 19.359375 -2.320312 19.859375 -2.03125 C 20.359375 -1.75 20.894531 -1.53125 21.46875 -1.375 L 21.4375 0.203125 C 21.070312 0.273438 20.710938 0.328125 20.359375 0.359375 C 20.003906 0.390625 19.644531 0.40625 19.28125 0.40625 Z M 19.28125 0.40625 "/></g></g></g><g fill="#000000" fill-opacity="1"><g transform="translate(325.762307, 221.176905)"><g/></g></g><g fill="#000000" fill-opacity="1"><g transform="translate(102.811664, 244.026956)"><g><path d="M 5.421875 0 L 3.40625 0 L 3.40625 -8.875 L 0.140625 -8.875 L 0.140625 -10.6875 L 8.671875 -10.6875 L 8.671875 -8.875 L 5.421875 -8.875 Z M 5.421875 0 "/></g></g></g><g fill="#000000" fill-opacity="1"><g transform="translate(121.804747, 244.026956)"><g><path d="M 7.265625 -4.640625 L 9.1875 0 L 7.046875 0 L 5.34375 -4.265625 L 2.96875 -4.265625 L 2.96875 0 L 0.953125 0 L 0.953125 -10.6875 L 5.5625 -10.6875 C 6.226562 -10.6875 6.816406 -10.578125 7.328125 -10.359375 C 7.835938 -10.140625 8.234375 -9.796875 8.515625 -9.328125 C 8.804688 -8.867188 8.953125 -8.269531 8.953125 -7.53125 C 8.953125 -6.832031 8.800781 -6.234375 8.5 -5.734375 C 8.195312 -5.242188 7.785156 -4.878906 7.265625 -4.640625 Z M 5.28125 -8.875 L 2.96875 -8.875 L 2.96875 -6.03125 L 5.28125 -6.03125 C 5.820312 -6.03125 6.234375 -6.148438 6.515625 -6.390625 C 6.796875 -6.640625 6.9375 -7 6.9375 -7.46875 C 6.9375 -7.914062 6.789062 -8.257812 6.5 -8.5 C 6.21875 -8.75 5.8125 -8.875 5.28125 -8.875 Z M 5.28125 -8.875 "/></g></g></g><g fill="#000000" fill-opacity="1"><g transform="translate(141.623372, 244.026956)"><g><path d="M 2.21875 0 L 0.09375 0 L 3.859375 -10.6875 L 6.078125 -10.6875 L 9.84375 0 L 7.734375 0 L 7 -2.203125 L 2.921875 -2.203125 Z M 4.96875 -8.484375 L 3.5 -3.96875 L 6.4375 -3.96875 Z M 4.96875 -8.484375 "/></g></g></g><g fill="#000000" fill-opacity="1"><g transform="translate(161.735836, 244.026956)"><g><path d="M 2.96875 0 L 0.953125 0 L 0.953125 -10.6875 L 3.21875 -10.6875 L 7.609375 -3.03125 L 7.609375 -10.6875 L 9.625 -10.6875 L 9.625 0 L 7.34375 0 L 2.96875 -7.65625 Z M 2.96875 0 "/></g></g></g><g fill="#000000" fill-opacity="1"><g transform="translate(182.477942, 244.026956)"><g><path d="M 5.1875 0.203125 C 4.675781 0.203125 4.15625 0.132812 3.625 0 C 3.101562 -0.125 2.617188 -0.320312 2.171875 -0.59375 C 1.722656 -0.875 1.347656 -1.25 1.046875 -1.71875 C 0.742188 -2.195312 0.554688 -2.78125 0.484375 -3.46875 L 2.578125 -3.46875 C 2.703125 -2.96875 2.894531 -2.570312 3.15625 -2.28125 C 3.425781 -2 3.738281 -1.800781 4.09375 -1.6875 C 4.457031 -1.582031 4.828125 -1.53125 5.203125 -1.53125 C 5.753906 -1.53125 6.21875 -1.644531 6.59375 -1.875 C 6.96875 -2.101562 7.15625 -2.476562 7.15625 -3 C 7.15625 -3.375 7.03125 -3.660156 6.78125 -3.859375 C 6.539062 -4.066406 6.226562 -4.226562 5.84375 -4.34375 C 5.457031 -4.457031 5.035156 -4.5625 4.578125 -4.65625 C 4.140625 -4.757812 3.703125 -4.875 3.265625 -5 C 2.828125 -5.125 2.421875 -5.289062 2.046875 -5.5 C 1.679688 -5.71875 1.390625 -6.003906 1.171875 -6.359375 C 0.953125 -6.722656 0.84375 -7.179688 0.84375 -7.734375 C 0.84375 -8.429688 1.003906 -9.007812 1.328125 -9.46875 C 1.660156 -9.925781 2.113281 -10.273438 2.6875 -10.515625 C 3.257812 -10.753906 3.90625 -10.875 4.625 -10.875 C 5.3125 -10.875 5.957031 -10.753906 6.5625 -10.515625 C 7.164062 -10.273438 7.675781 -9.90625 8.09375 -9.40625 C 8.519531 -8.914062 8.789062 -8.28125 8.90625 -7.5 L 6.84375 -7.5 C 6.71875 -8.070312 6.445312 -8.488281 6.03125 -8.75 C 5.613281 -9.019531 5.128906 -9.15625 4.578125 -9.15625 C 4.078125 -9.15625 3.660156 -9.050781 3.328125 -8.84375 C 3.003906 -8.632812 2.84375 -8.320312 2.84375 -7.90625 C 2.84375 -7.582031 2.957031 -7.328125 3.1875 -7.140625 C 3.414062 -6.953125 3.710938 -6.800781 4.078125 -6.6875 C 4.453125 -6.582031 4.859375 -6.484375 5.296875 -6.390625 C 5.742188 -6.296875 6.191406 -6.179688 6.640625 -6.046875 C 7.097656 -5.910156 7.519531 -5.726562 7.90625 -5.5 C 8.289062 -5.269531 8.597656 -4.960938 8.828125 -4.578125 C 9.066406 -4.191406 9.1875 -3.695312 9.1875 -3.09375 C 9.1875 -2.082031 8.832031 -1.28125 8.125 -0.6875 C 7.425781 -0.09375 6.445312 0.203125 5.1875 0.203125 Z M 5.1875 0.203125 "/></g></g></g><g fill="#000000" fill-opacity="1"><g transform="translate(202.394517, 244.026956)"><g><path d="M 2.96875 0 L 0.953125 0 L 0.953125 -10.6875 L 5.5625 -10.6875 C 6.226562 -10.6875 6.816406 -10.578125 7.328125 -10.359375 C 7.835938 -10.140625 8.234375 -9.796875 8.515625 -9.328125 C 8.804688 -8.867188 8.953125 -8.269531 8.953125 -7.53125 C 8.953125 -6.851562 8.804688 -6.269531 8.515625 -5.78125 C 8.234375 -5.289062 7.835938 -4.914062 7.328125 -4.65625 C 6.816406 -4.394531 6.226562 -4.265625 5.5625 -4.265625 L 2.96875 -4.265625 Z M 2.96875 -8.875 L 2.96875 -6.03125 L 5.28125 -6.03125 C 5.820312 -6.03125 6.234375 -6.148438 6.515625 -6.390625 C 6.796875 -6.640625 6.9375 -7 6.9375 -7.46875 C 6.9375 -7.914062 6.789062 -8.257812 6.5 -8.5 C 6.21875 -8.75 5.8125 -8.875 5.28125 -8.875 Z M 2.96875 -8.875 "/></g></g></g><g fill="#000000" fill-opacity="1"><g transform="translate(221.891323, 244.026956)"><g><path d="M 5.71875 0.203125 C 4.84375 0.203125 4.078125 0.0507812 3.421875 -0.25 C 2.773438 -0.550781 2.238281 -0.957031 1.8125 -1.46875 C 1.382812 -1.976562 1.066406 -2.566406 0.859375 -3.234375 C 0.648438 -3.898438 0.546875 -4.601562 0.546875 -5.34375 C 0.546875 -6.082031 0.648438 -6.785156 0.859375 -7.453125 C 1.066406 -8.117188 1.382812 -8.707031 1.8125 -9.21875 C 2.238281 -9.738281 2.773438 -10.144531 3.421875 -10.4375 C 4.078125 -10.726562 4.84375 -10.875 5.71875 -10.875 C 6.613281 -10.875 7.382812 -10.726562 8.03125 -10.4375 C 8.6875 -10.144531 9.226562 -9.738281 9.65625 -9.21875 C 10.082031 -8.707031 10.398438 -8.117188 10.609375 -7.453125 C 10.816406 -6.785156 10.921875 -6.082031 10.921875 -5.34375 C 10.921875 -4.601562 10.816406 -3.898438 10.609375 -3.234375 C 10.398438 -2.566406 10.082031 -1.976562 9.65625 -1.46875 C 9.226562 -0.957031 8.6875 -0.550781 8.03125 -0.25 C 7.382812 0.0507812 6.613281 0.203125 5.71875 0.203125 Z M 5.71875 -1.609375 C 6.382812 -1.609375 6.945312 -1.765625 7.40625 -2.078125 C 7.863281 -2.390625 8.210938 -2.828125 8.453125 -3.390625 C 8.691406 -3.953125 8.8125 -4.601562 8.8125 -5.34375 C 8.8125 -6.082031 8.691406 -6.726562 8.453125 -7.28125 C 8.210938 -7.84375 7.863281 -8.28125 7.40625 -8.59375 C 6.945312 -8.90625 6.382812 -9.0625 5.71875 -9.0625 C 5.082031 -9.0625 4.53125 -8.90625 4.0625 -8.59375 C 3.601562 -8.28125 3.25 -7.84375 3 -7.28125 C 2.757812 -6.726562 2.640625 -6.082031 2.640625 -5.34375 C 2.640625 -4.601562 2.757812 -3.953125 3 -3.390625 C 3.25 -2.828125 3.601562 -2.390625 4.0625 -2.078125 C 4.53125 -1.765625 5.082031 -1.609375 5.71875 -1.609375 Z M 5.71875 -1.609375 "/></g></g></g><g fill="#000000" fill-opacity="1"><g transform="translate(243.542925, 244.026956)"><g><path d="M 7.265625 -4.640625 L 9.1875 0 L 7.046875 0 L 5.34375 -4.265625 L 2.96875 -4.265625 L 2.96875 0 L 0.953125 0 L 0.953125 -10.6875 L 5.5625 -10.6875 C 6.226562 -10.6875 6.816406 -10.578125 7.328125 -10.359375 C 7.835938 -10.140625 8.234375 -9.796875 8.515625 -9.328125 C 8.804688 -8.867188 8.953125 -8.269531 8.953125 -7.53125 C 8.953125 -6.832031 8.800781 -6.234375 8.5 -5.734375 C 8.195312 -5.242188 7.785156 -4.878906 7.265625 -4.640625 Z M 5.28125 -8.875 L 2.96875 -8.875 L 2.96875 -6.03125 L 5.28125 -6.03125 C 5.820312 -6.03125 6.234375 -6.148438 6.515625 -6.390625 C 6.796875 -6.640625 6.9375 -7 6.9375 -7.46875 C 6.9375 -7.914062 6.789062 -8.257812 6.5 -8.5 C 6.21875 -8.75 5.8125 -8.875 5.28125 -8.875 Z M 5.28125 -8.875 "/></g></g></g><g fill="#000000" fill-opacity="1"><g transform="translate(263.36155, 244.026956)"><g><path d="M 5.421875 0 L 3.40625 0 L 3.40625 -8.875 L 0.140625 -8.875 L 0.140625 -10.6875 L 8.671875 -10.6875 L 8.671875 -8.875 L 5.421875 -8.875 Z M 5.421875 0 "/></g></g></g></svg>